<svg width="0" height="0" class="hidden">
  <symbol xmlns="http://www.w3.org/2000/svg" viewBox="0 0 46.006 46.007" id="smart-home">
    <g fill="none">
      <path d="M0 0h46.006v46.007H0z"></path>
      <path d="M36.421 16.697L26.195 8.745a5.111 5.111 0 00-6.276 0L9.695 16.697a5.109 5.109 0 00-1.97 4.035v13.8a3.834 3.834 0 003.834 3.836h23a3.834 3.834 0 003.836-3.834v-13.8a5.11 5.11 0 00-1.974-4.035M30.67 28.754a16.3 16.3 0 01-15.335 0" stroke="#40556c" stroke-linecap="round" stroke-linejoin="round" stroke-width="3"></path>
    </g>
  </symbol>
  <symbol xmlns="http://www.w3.org/2000/svg" viewBox="0 0 48.607 48.608" id="clipboard-list">
    <g transform="translate(0 .001)">
      <path d="M0-.001h48.607v48.608H0z" fill="rgba(0,0,0,0)"></path>
      <path d="M18.227 10.126h-4.049a4.051 4.051 0 00-4.051 4.051v24.3a4.051 4.051 0 004.051 4.051h20.249a4.051 4.051 0 004.051-4.051v-24.3a4.051 4.051 0 00-4.051-4.051H30.38" fill="rgba(0,0,0,0)" stroke="#40556c" stroke-linecap="round" stroke-linejoin="round" stroke-width="3"></path>
      <rect width="12.376" height="8.045" rx="2" transform="translate(18.286 5.909)" fill="rgba(0,0,0,0)" stroke="#40556c" stroke-linecap="round" stroke-linejoin="round" stroke-width="3"></rect>
      <path fill="none" stroke="#40556c" stroke-linecap="round" stroke-linejoin="round" stroke-width="3" d="M18.286 24.473h0m8.044 0h4.332m-12.376 8.045h0m8.044 0h4.332"></path>
    </g>
  </symbol>
  <symbol xmlns="http://www.w3.org/2000/svg" viewBox="0 0 156.501 156.501" id="upload">
    <path d="M0 0h156.5v156.5H0z" fill="none"></path>
    <path d="M26.083 110.855v13.042a13.042 13.042 0 0013.042 13.041h78.25a13.042 13.042 0 0013.042-13.042v-13.041M45.646 58.683l32.6-32.6 32.6 32.6M78.501 26v78" fill="none" stroke="#000" stroke-linecap="round" stroke-linejoin="round" stroke-width="4"></path>
  </symbol>
  <symbol xmlns="http://www.w3.org/2000/svg" viewBox="0 0 42 42" id="check">
    <g fill="none">
      <path d="M0 0h42v42H0z"></path>
      <path d="M8.75 21l8.75 8.75L35 12.25" stroke="#77aca2" stroke-linecap="round" stroke-linejoin="round" stroke-width="4"></path>
    </g>
  </symbol>
  <symbol xmlns="http://www.w3.org/2000/svg" viewBox="0 0 184.493 177.131" id="card-icon-trophy">
    <path d="M25.682 19.373c0-.008-.01-.006-.012-.013a.276.276 0 00-.433.049c-.008 0-.006.01-.013.012a.207.207 0 00-.06.081l-.036-.015a.248.248 0 00-.054-.328 25.7 25.7 0 00-3.309-2.415 7.508 7.508 0 00-3.2-1.313 3.763 3.763 0 00-2.821 1.3 19.115 19.115 0 00-2.663 3.007 1.42 1.42 0 00-.348 1.081c.115.619.814.686.721 1.4a2.378 2.378 0 00.338 2.174c1.5 1.851 4.873 1.684 6.975 1.471a19 19 0 001.993-.258c.577-.119.667-.328.891-.867.681-1.664 1.371-3.322 2.052-4.987a.292.292 0 00-.021-.379z" fill="rgba(139,103,148,0.2)"></path>
    <path d="M184.453 151.382q-7.866-8.792-15.333-17.942a.15.15 0 00-.2 0q-4.922 4.317-10.13 8.285a.162.162 0 00-.153.219c1.241 2.948 2.471 5.9 3.711 8.843.312.753.631 1.507.944 2.258a4.687 4.687 0 01.643 2.653 9.635 9.635 0 01-.924 2.162c-.346.716-.691 1.441-1.036 2.162q-3.958 8.345-7.364 16.932c-.059.145.142.231.24.14q9.522-8.424 19.053-16.843a.142.142 0 00.036-.14q-2.122-5.975-4.6-11.808 3.406 5.587 6.812 11.184a.148.148 0 00.227.03q4.028-3.971 8.065-7.934a.135.135 0 00.01-.2z" fill="#7b9ea8"></path>
    <path d="M169.96 133.171q-3.865-6.854-8.128-13.473c-2.44-3.778-4.8-7.618-7.446-11.26-1.933-2.654-4.084-5.121-6.132-7.688-1.965-2.46-3.9-4.935-5.873-7.383-2.2-2.721-4.6-5.253-6.97-7.824q-4.307-4.657-8.607-9.324-7.355-7.953-14.845-15.783-1.993-2.063-3.991-4.127-1.036-1.065-2.086-2.127c-.356-.368-.715-.744-1.085-1.1a3.782 3.782 0 00-1.317-.715 84.039 84.039 0 00-13.267-4.29 109.236 109.236 0 00-14.3-2.227l-15.718-1.573c-5.117-.517-10.268-1.163-15.413-.707a42.27 42.27 0 00-7.155 1.262 16 16 0 00-5.967 2.485c-2.768 2.239-3.234 6.134-2.855 9.449a34.2 34.2 0 004.986 13.466c4.684 7.737 12.3 12.617 20.051 16.884 8.1 4.459 16.186 9.24 25.017 12.118 1.332.436 2.678.8 4.024 1.17a.294.294 0 00.281-.074q4.824-5.568 9.795-11c3.847 3.423 7.747 6.8 11.562 10.256 3.9 3.537 7.6 7.292 11.439 10.9a234.154 234.154 0 0025.452 20.693c5.4 3.794 10.328 8.188 15.73 11.972a.293.293 0 00.353-.045q6.206-4.8 12.421-9.593a.273.273 0 00.044-.342z" fill="#9dbebb"></path>
    <path d="M109.615 95.677q-7.795-3.871-15.831-7.248a.145.145 0 00-.144.038q-3.844 4.482-8.023 8.646a.131.131 0 00-.007.188.154.154 0 00-.024.217c.96 1.15 1.919 2.293 2.879 3.443.937 1.124 2.131 2.237 2.489 3.692a29.486 29.486 0 01.443 4.694c.113 1.446.227 2.893.328 4.334q.647 8.777 1.123 17.551c.011.135 6-12.151 8.507-18.41.319-.79.63-1.578.94-2.373a5.746 5.746 0 00.612-1.987 3.163 3.163 0 00-.659-1.668c-.459-.721-.937-1.432-1.418-2.149q-2.537-3.76-5.371-7.3a44.079 44.079 0 019.219 9.154.148.148 0 00.266-.038q2.128-5.4 4.706-10.611a.11.11 0 00-.034-.176z" fill="#468189"></path>
    <path d="M56.022 59.004c5.879 1.655 10.816 5.642 15.481 9.426 4.924 4 9.582 8.312 14.094 12.752a721.07 721.07 0 017.75 7.795c.521.528 1.336-.288.816-.815-9-9.17-18.144-18.554-28.8-25.836a30.975 30.975 0 00-9.029-4.434.578.578 0 00-.308 1.114z" fill="#2c2b47"></path>
    <path d="M68.715 52.263c-2.031-.081-3.685-1.332-5.222-2.549a.215.215 0 00-.094-.048.28.28 0 00-.328-.173 2.178 2.178 0 00-1.441 3.333 2.027 2.027 0 00.282 3.284 1.9 1.9 0 001.106 2.686c-.673 2.984 5.579 2.7 7.174 2.595a.3.3 0 00.286-.36q-.83-4.258-1.483-8.548a.3.3 0 00-.28-.22z" fill="#fff"></path>
    <path d="M97.272 67.44a6.6 6.6 0 003.4-3.451 7.892 7.892 0 00.013-5.365.576.576 0 00-1.114.293 6.729 6.729 0 01-.006 4.748 5.56 5.56 0 01-2.868 2.784c-.677.292-.09 1.289.578.992z" fill="#2c2b47"></path>
    <path d="M111.261 42.62c-2.221-3.592-6.007-5.95-9.924-7.548a78.1 78.1 0 00-13.1-3.62c-18.963-4.078-37.172-8.623-56.332-11.643l-7.3-1.522a41.361 41.361 0 00-3.268 8.765l6.955 3.21c12.8 5.69 24.669 13.629 37.683 18.068a31.629 31.629 0 014.7 2.079c1.3.744 2.215-.154 2.334 1.347a14.069 14.069 0 00-3.457 1.69l1.31 8.237a65.5 65.5 0 0033.83-3.231c2.376-.894 4.8-1.994 6.411-3.961 2.671-3.261 2.386-8.28.158-11.871z" fill="#e47777"></path>
    <path d="M96.271 29.18a3.725 3.725 0 00-3.213-1.025 6.71 6.71 0 00-3.1 1.653c-.1-.372-.2-.734-.307-1.1a.29.29 0 00-.355-.206 245.953 245.953 0 01-25.64 6.5.274.274 0 00-.207.2 3.336 3.336 0 00.367 1.729c-.2-.06-.413-.151-.543-.181a5.348 5.348 0 00-.74-.1 3.377 3.377 0 00-1.744.306 3.442 3.442 0 00-1.694 2.223c-.624 2.338.529 5.175 1.683 7.182a12.9 12.9 0 004.994 5c2.019 1.074 4.869 1.823 6.688.078a14.861 14.861 0 009.373 3.275 8.41 8.41 0 01.143 4.545 41.205 41.205 0 00-1.285 4.233 17.013 17.013 0 001.174 7.778 226.731 226.731 0 00-4.371 1.729.3.3 0 00-.206.354 44.407 44.407 0 002.173 6.184.285.285 0 00.32.135q6.277-1.668 12.437-3.749c3.685-1.255 7.693-2.393 10.853-4.743a.307.307 0 00.107-.393q-1.338-2.994-2.682-5.986a.285.285 0 00-.319-.135q-1.867.675-3.734 1.334a12.4 12.4 0 00-4.127-5.961c-1.072-.837-2.293-1.407-3.435-2.137a7.874 7.874 0 01-3.039-3.806c2.882-.939 5.109-2.775 5.786-5.809 3.9.059 7.089-3.451 7.891-7.053.879-3.968-.216-9.228-3.248-12.054zm-30.2 17.875a6.311 6.311 0 01-2.316-2.813 5.263 5.263 0 01-.271-.813c-.145-.61-.185-.673.307-1.144s.569-.426 1.146-.269a4.9 4.9 0 01.901.264c.414.215.577.805.8 1.21.289.54.585 1.079.894 1.605q.87 1.5 1.864 2.916a6.45 6.45 0 01-3.327-.954zM94.195 36.28c.59 2.707.736 6.238-2.278 7.423a57.31 57.31 0 00-.444-6.3c-.1-.792-.708-2.531-.122-3.107a1.521 1.521 0 012.277.39 4.7 4.7 0 01.565 1.594z" fill="#ffc200"></path>
    <path d="M112.307 44.405c-1.688-4.341-5.7-6.559-9.729-8.41a.3.3 0 00-.426.169 48.532 48.532 0 01-1.179 4.2c-.271.817-.43 1.441-1.364 1.657-.474.109-.948.25-1.416.382a167.199 167.199 0 00-6.5 1.979c-5.059 1.642-10.087 3.406-15.109 5.152-2.644.924-5.3 1.85-7.948 2.745a.287.287 0 00-.2.214.328.328 0 00-.012.141c.445 3.071 1.413 6.036 1.858 9.1a.289.289 0 00.2.206c4.7.846 9.472 1.714 14.264 1.4a56.987 56.987 0 006.983-1.095c2.593-.505 5.186-1.035 7.739-1.724 4.093-1.12 9.071-2.578 11.786-6.092a10.38 10.38 0 001.053-10.024z" fill="#e47777"></path>
    <path d="M78.66 4.977c-9.334-3.732-8.619 10.581-6.083 15.44a7.174 7.174 0 00.918 1.405 9.292 9.292 0 001.456 2.4 5.324 5.324 0 008.3.4 9.206 9.206 0 001.475-2.583 7.41 7.41 0 00.794-4.716v-.041c-.058-5.082-2.607-10.6-6.86-12.305z" fill="rgba(139,103,148,0.15)"></path>
    <path d="M67.168 41.136a45.124 45.124 0 004.732 8.4c.426.6 1.435.027 1-.58a44.619 44.619 0 01-4.733-8.4c-.294-.685-1.292-.1-1 .58zm-1.965-4.747a7.738 7.738 0 00.837 1.791c.4.624 1.4.045 1-.58a6.423 6.423 0 01-.721-1.507c-.228-.71-1.343-.417-1.114.294z" fill="#fff"></path>
    <path d="M37.355 2.634l-1.68.735a7.3 7.3 0 01-.844.368.949.949 0 01-1.039-.156 16.585 16.585 0 01-2.3-2.293c-.2-.239-.529.026-.485.282.21 1.259.358 2.526.553 3.789a15.524 15.524 0 00-3.406 1.547.292.292 0 00.142.538l3.406.393a14.643 14.643 0 00.751 4.078c.081.246.5.305.561.006.262-1.432.521-2.855.786-4.287a21.66 21.66 0 003.572 1.857c.227.094.467-.229.328-.426l-2.37-3.358a13.63 13.63 0 002.41-2.672c.193-.269-.145-.505-.385-.401zM22.131 38.018l-1.68.735a7.3 7.3 0 01-.844.368.949.949 0 01-1.039-.156 16.694 16.694 0 01-2.3-2.293c-.2-.239-.529.026-.485.282.21 1.258.358 2.526.553 3.789a15.489 15.489 0 00-3.405 1.548.292.292 0 00.142.538l3.406.393a14.591 14.591 0 00.751 4.077c.081.246.5.306.561.007l.786-4.287a21.732 21.732 0 003.572 1.857c.228.094.467-.229.328-.427l-2.37-3.358a13.669 13.669 0 002.405-2.673c.186-.266-.152-.5-.381-.4zM6.726.739c-.422.184-1.2.688-1.581.5A5.4 5.4 0 014.008.095c-.208-.237-.521.024-.485.282.095.576.167 1.157.255 1.734a8.739 8.739 0 00-1.6.738.291.291 0 00.141.538l1.547.176a7.706 7.706 0 00.369 1.922c.081.246.5.306.561.007.115-.639.238-1.28.354-1.919a11.617 11.617 0 001.621.823c.227.094.467-.229.328-.427-.365-.52-.736-1.039-1.1-1.559a7.63 7.63 0 001.125-1.27c.191-.271-.165-.503-.398-.401zm46.113 12.894c-.422.184-1.2.688-1.581.5a5.371 5.371 0 01-1.137-1.144c-.209-.237-.524.024-.485.282.094.576.167 1.157.254 1.734a8.827 8.827 0 00-1.6.738.291.291 0 00.142.538l1.547.176a7.705 7.705 0 00.369 1.922c.081.246.5.306.561.006.115-.639.238-1.279.354-1.919a11.653 11.653 0 001.623.826c.227.094.467-.229.328-.427-.364-.52-.736-1.039-1.1-1.559a7.661 7.661 0 001.119-1.27c.191-.266-.164-.505-.394-.403zm-48.154 8.38c-.422.184-1.2.689-1.581.5a5.353 5.353 0 01-1.136-1.147c-.209-.237-.524.024-.485.282.095.575.167 1.157.254 1.734a8.867 8.867 0 00-1.6.738.291.291 0 00.142.539l1.547.176a7.745 7.745 0 00.369 1.923c.081.246.5.305.561.006.115-.639.238-1.28.354-1.919a11.642 11.642 0 001.62.821c.228.094.467-.229.328-.426-.364-.524-.736-1.039-1.1-1.56a7.633 7.633 0 001.125-1.27c.185-.268-.165-.499-.398-.397z" fill="#fde74c"></path>
    <path d="M13.842 22.252c1.507.089 3.079.316 4.585.276 1.048-.032 1.428-.952 1.908-1.809.34-.617.349-1.228-.4-1.532-1.052-.42-1.871.534-2.854.314-.362-.083-.515.477-.153.559a1.773 1.773 0 001.188.012c.441-.141 1.756-1.064 1.725.356a3.92 3.92 0 01-.705 1.114c-.606.655-1.772.354-2.6.305-.891-.057-1.78-.107-2.671-.164-.373-.031-.383.547-.012.571z" fill="#8b6794"></path>
  </symbol>
  <symbol xmlns="http://www.w3.org/2000/svg" viewBox="0 0 54.831 54.831" id="book">
    <path d="M0 0h54.831v54.831H0z" fill="none"></path>
    <path d="M6.854 43.408a20.562 20.562 0 0120.562 0 20.562 20.562 0 0120.562 0m-41.124-29.7a20.562 20.562 0 0120.562 0 20.562 20.562 0 0120.562 0M7 13.831v30m20-30v30m21-30v30" fill="none" stroke="#40556c" stroke-linecap="round" stroke-linejoin="round" stroke-width="4"></path>
  </symbol>
  <symbol xmlns="http://www.w3.org/2000/svg" viewBox="0 0 67 67" id="ear">
    <path d="M0 0h67v67H0z" fill="none"></path>
    <path d="M16.75 27.916a19.542 19.542 0 1136.292 10.048 27.917 27.917 0 01-5.583 5.583 22.333 22.333 0 00-5.583 8.375 12.562 12.562 0 01-18.983 3.908m5.023-27.913a8.375 8.375 0 1113.958 6.142" fill="none" stroke="#40556c" stroke-linecap="round" stroke-linejoin="round" stroke-width="4"></path>
  </symbol>
  <symbol xmlns="http://www.w3.org/2000/svg" viewBox="0 0 61.319 61.319" id="speakerphone">
    <path d="M0 0h61.319v61.319H0z" fill="none"></path>
    <path d="M45.99 20.44a7.665 7.665 0 010 15.33M25.55 20.44v28.1a2.555 2.555 0 01-2.555 2.56H20.44a2.555 2.555 0 01-2.555-2.56V35.77" fill="none" stroke="#40556c" stroke-linecap="round" stroke-linejoin="round" stroke-width="4"></path>
    <path d="M30.66 20.439h0l11.558-9.632a2.3 2.3 0 013.771 1.768v31.058a2.3 2.3 0 01-3.771 1.768L30.66 35.769H10.22a2.555 2.555 0 01-2.555-2.555v-10.22a2.555 2.555 0 012.555-2.555h20.44" fill="none" stroke="#40556c" stroke-linecap="round" stroke-linejoin="round" stroke-width="4"></path>
  </symbol>
  <symbol xmlns="http://www.w3.org/2000/svg" viewBox="0 0 62.415 62.415" id="pencil">
    <path d="M0 0h62.415v62.415H0z" fill="none"></path>
    <path d="M10.403 52.012h10.4l27.309-27.306a7.356 7.356 0 00-10.4-10.4L10.403 41.61v10.4m24.705-35.106l10.403 10.403" fill="none" stroke="#40556c" stroke-linecap="round" stroke-linejoin="round" stroke-width="4"></path>
  </symbol>
  <symbol xmlns="http://www.w3.org/2000/svg" viewBox="0 0 149.777 166.122" id="card-icon-lightbulb">
    <g fill-rule="evenodd">
      <path d="M37.559 125.442c-1.723 1.756-3.56 3.395-5.447 4.972-1.862 1.556-3.655 3.237-5.625 4.657-.458.332-.939-.38-.579-.757 1.693-1.776 3.636-3.322 5.442-4.976a70.751 70.751 0 015.628-4.655c.454-.337.949.384.581.759zm-15.877-24.724c-3.467 1.26-6.994 2.4-10.563 3.334-1.445.38-2.908.68-4.678 1.024-1.864.363-4.031.75-6.125 1.309a.465.465 0 00.146.906 40.977 40.977 0 0011.1-1.767 60.757 60.757 0 0010.57-3.806c.562-.269.134-1.213-.45-1zm3.151-23.378a75.962 75.962 0 00-7.573-3.747c-2.665-1.2-5.235-2.126-7.905-3.226-.454-.187-.817.569-.371.79 2.555 1.27 4.919 2.586 7.547 3.788a76.689 76.689 0 007.887 3.273.492.492 0 00.415-.878zm18.085 7.422c.172-.678-.8-.965-1.124-.394a16.457 16.457 0 00-1.779 7.409c-.1 2.43.05 5.278 1.3 7.425.261.447 1.063.185.947-.307a24.453 24.453 0 01-.7-7.082 33.169 33.169 0 011.356-7.051zm3.765-9.174a10.6 10.6 0 00-3.372 5.221.624.624 0 001.164.436 23.608 23.608 0 012.817-4.748c.55-.663-.138-1.221-.608-.909zm-.912 40.307a29.933 29.933 0 01-10.676-23.577 30.67 30.67 0 0112.01-23.411.529.529 0 00-.614-.859 30.913 30.913 0 00-12.913 25.45c.147 11.367 5.8 19.758 14.671 26.13 4.869 3.5 10.426 7.194 11.669 13.5.109.557.959.518.9-.074-.794-8.251-9.406-12.43-15.046-17.159zm69.719-32.577c-.25-.5-1.129-.12-.913.407a24.517 24.517 0 01-.379 19.6c-3.5 7.411-10.011 10.155-14.992 15.934-2.509 2.911-4.583 6.588-4.218 10.558a.474.474 0 00.946-.015c.242-4.734 2.807-8.257 5.987-11.346 5.017-4.877 10.414-7.867 13.533-14.572a23.949 23.949 0 00.036-20.566zm4.945 43.106a65.434 65.434 0 00-7.687-4.2c-.541-.217-.767.54-.392.849a66.155 66.155 0 007.38 4.736c2.51 1.506 5.011 3.027 7.632 4.335a.603.603 0 00.643-1.02c-2.439-1.7-5.012-3.193-7.576-4.7zm27.327-30.6a81.653 81.653 0 00-9.039-.393c-3.054-.049-6.107-.076-9.161.007-.529.014-.573.9-.037.943 3.008.215 6.022.324 9.036.409a82.723 82.723 0 009.165.013.5.5 0 00.035-.978zm-15.919-24.519a48.649 48.649 0 007.418-2.735 37.851 37.851 0 006.883-3.908c.541-.414-.078-1.211-.651-.946-2.349 1.086-4.571 2.429-6.908 3.538-2.239 1.063-4.767 2.3-7.037 3.231a.441.441 0 00.3.817zM97.436 47.188c-6.8-5.123-12.424-7.175-20.782-8.968-.482-.1-.339-.854.132-.837a30.738 30.738 0 019.17 1.924c-2.077-4.67-6.051-8.064-9.424-8.89-3.793 1.558-9.255 6.1-10.907 8.087 2.109 6.187-4.2 11.315-11.661 8.33a42.249 42.249 0 00-12.062 7.518c3.171 1.432 6.479 7.025 7.5 11.75 4.5-1.678 9.723-3.482 14.634-2.984s20.081 8.082 26.8 9.574c-3.285-5.206-.862-17.56 6.6-25.509z" fill="#9dbebb"></path>
      <path d="M58.359 135.156c5.222 7.547 2.463 18.828 8.45 26.109 6.868 8.353 21.017 4.973 25.053-2.9s1.352-13.347 5.123-26.192c-11.894 7.042-30.711 5.716-38.626 2.983zM89.516 154c-2.169 2.765-5.682 4.63-8.956 5.715a20.038 20.038 0 01-10.535.8.448.448 0 01.119-.878 25.454 25.454 0 0010.038-1.383 26 26 0 008.758-5c.454-.375.875.362.576.746zm1.391-7.249a17.059 17.059 0 01-9.46 6.094c-2.619.733-10.471 1.878-13.253 1.1-.447-.125-.4-.849.017-.846a57.38 57.38 0 0012.535-1.639 20.886 20.886 0 009.369-5.33c.4-.406 1.131.153.79.618zm.019-7.706c.411-.257 1.012.262.623.678-2.578 2.753-7.914 5.041-11.543 6a30.189 30.189 0 01-13.025.674c-.583-.1-.4-.932.166-.886a35.991 35.991 0 0012.512-1.114c4.821-1.354 7.394-2.932 11.267-5.349zm-1.615-54.659c-3.287-1.39-4.75-.16-5.626 3.007a81.884 81.884 0 00-2.873 18.3 40.556 40.556 0 01-10.764.449c-.721-3.232-3.162-13.6-4.984-16.182a3.119 3.119 0 00-4.712-.7c-1.747 1.313-4.64 6.567-5.647 8.751-1.432 3.1-.61 4.731 2.378 6.082a40.04 40.04 0 0011.791 3.265 131.632 131.632 0 012.058 11.874c.538 4.289.871 8.764 1.209 13.087a.434.434 0 00.866-.022 87.759 87.759 0 00-.74-13.381 137.753 137.753 0 00-1.925-11.414 42.182 42.182 0 0010.42-.412 81.666 81.666 0 002.565 22.8c.206.783 1.4.43 1.2-.353a84.746 84.746 0 01-2.432-22.678c4.411-.879 12.279-3.527 15.241-7.2 2.673-3.314 1.248-7.282-1.268-10.254a18.464 18.464 0 00-6.759-5.026zM58.852 103.44c-3.408-1.39-4.512-1.876-2.589-5.594 1.025-1.98 2.986-5.656 4.506-7.16.842-.831 1.984-1.26 2.891-.282 1.6 1.737 4.315 12.965 4.912 15.564a38.859 38.859 0 01-9.72-2.527zm37.481-4.7c-2.472 3.329-10.1 5.829-14.179 6.692.239-5.079 1.286-13.644 3.1-18.625.573-1.566 1.4-1.862 2.979-1.347a16.219 16.219 0 018.618 7.555 5.465 5.465 0 01-.518 5.724zM61.169 23.608c-1.665.618-1.9 2.508-1.507 4.089a1.922 1.922 0 00-1.583.573c-.775-1.576-2.569-2.943-4.3-1.96-1.459.828-1.525 3.029-1.119 4.457-.687.275-1.531.422-2.26.706a.414.414 0 00.241.781c.722-.133 1.61-.4 2.349-.6.771 1.681 2.342 3.278 4.328 2.267s1.77-2.966 1.141-4.744a1.4 1.4 0 011.508-.545c.6 1.514 2.028 3.548 3.9 2.64s1.532-3.38 1-4.973-1.856-3.375-3.698-2.691zm-4.206 9.467c-1.625.859-2.84-.847-3.3-2.169-.383-1.1-.568-3.051.539-3.778 1.449-.951 2.845.9 3.3 2.087.499 1.321.966 3.064-.54 3.859zm6.542-2.63c-1.559.655-2.416-1.193-2.874-2.349-.477-1.2-.614-3.16.844-3.65s2.319 1.311 2.659 2.406c.351 1.14.586 3.081-.63 3.592zm-7.58.52c.212.466.185.808-.085 1.031-.361.3-.723.057-.951-.333-.159-.272-.329-.9.092-1.165.358-.223.801.153.943.465zm6.931-2.394a.93.93 0 01-.229.937c-.367.242-.769-.175-.878-.528-.134-.43-.11-.9.172-1.084.445-.291.839.313.936.675zm-1.828 4.369c.235-.221.316-.382.108-.651a6.759 6.759 0 00-1.343-1.139c-.383-.269.033-.9.435-.687a5.863 5.863 0 011.243.917c1 .944.865 1.806-.237 2.583a2.793 2.793 0 01-1.528.585.448.448 0 01-.175-.8c.352-.281.996-.34 1.496-.81zm-3.169 3.581a3.792 3.792 0 002.218-.463c.53-.294.8.375.418.67a4.675 4.675 0 01-2.687.676 4.4 4.4 0 01-2.586-.864c-.355-.3-.015-.96.423-.727a4.516 4.516 0 002.214.707zm-1.913 3.587c2.417.251 5.177.529 7.218-1.072 2.5-1.954 1.539-4.5.646-6.539-.243-.556.526-.776.741-.339 1.264 2.561 1.79 5.373-.661 7.416-2.266 1.89-5.306 1.726-8.054 1.334-.453-.065-.341-.848.111-.8zm22.869-10.971c2.243-1.609 4.594-3.1 5.921-5.618 1.45-2.75 1.56-5.948 1.646-8.989a3.934 3.934 0 01-4.3-3.456.418.418 0 01.812-.183 3.082 3.082 0 003.2 2.677c.934-.054 1.272.034 1.25.8-.092 3.249-.226 6.611-1.746 9.561-1.35 2.621-3.844 4.418-6.308 5.913-.414.253-.876-.426-.483-.708zm8.331-27.622a.425.425 0 01.554-.63 7.754 7.754 0 012.354 3.145 7.7 7.7 0 01.619 3.914.5.5 0 01-.951-.065 10.138 10.138 0 00-.586-3.464 9 9 0 00-1.991-2.9zm4.685 6.43a11.228 11.228 0 00.883-3.684 10.966 10.966 0 00-.54-3.754c-.133-.472.554-.709.8-.29a9.1 9.1 0 01.733 4.08 8.9 8.9 0 01-1 4.041.484.484 0 01-.872-.393zm1.415 1.735a8.888 8.888 0 002.024-2.269 11.089 11.089 0 001.188-2.87.421.421 0 11.829.147 8.336 8.336 0 01-1.184 3.208 9.917 9.917 0 01-2.209 2.555c.175 2.654.272 5.316.391 7.973.4 9-.135 12.346-7.9 18.363-.516.4-1.088-.434-.577-.831 7.76-6.03 7.81-9.2 7.452-18.035-.1-2.515-.233-5.031-.282-7.548a.959.959 0 01.266-.692zM47.097 39.291c-4.4 5.347-6.928 10.607-6.6 17.677a.433.433 0 01-.859.1c-.917-6.664 2.4-13.488 6.68-18.388.419-.472 1.187.12.779.611zm.434 26.6a37.258 37.258 0 01-10.017 3.175c-14.806 2.187-10.42-13.95-5.81-21.367a78.746 78.746 0 018.3-11.052 17.325 17.325 0 01-.312-11.135c.19-.593 1.132-.776.9.307a18.3 18.3 0 00.236 10.265 1.344 1.344 0 01-.259 1.453 51.654 51.654 0 00-9.394 13.227c-3.549 7.436-5.746 19.246 6.626 17.215 3.469-.569 6.089-1.833 9.329-2.819.425-.129.843.487.4.729zM125.7 79.613c.868 1.911 3.9 7.858 3.911 9.586.01 2.322-2.221 3.66-4.075 1.859-2.251-2.186-3.226-4.615-6.11-6.969-1.787-1.458-4.144-2.536-5.409-4.474a5.041 5.041 0 01-.525-4.8c.212-.523 1.088-.263.951.286a4.839 4.839 0 00.644 4.025c1.006 1.388 3.552 2.7 5.035 3.92 2.987 2.445 3.786 4.3 6.064 6.861 1.123 1.264 2.215.74 2.22-.725 0-1.314-2.985-6.966-3.9-8.913a32.219 32.219 0 01-2.349-5.413c-.137-.573.693-1.279 1.021-.394.712 1.926 1.751 3.452 2.522 5.148zm24.053-47.865c-.264 2.952-3.325 14.665-4.028 16.886-1.3 4.119-5.253 3.7-8.441 2.2-.563-.266-.2-1.154.387-1 2.394.611 5.768 1.621 6.735-1.583.977-3.241 4.053-13.633 4.129-16.519.023-.881-.533-1.2-1.211-.675-2.291 1.776-5.437 7.349-6.993 9.934-.246.409-1 .172-.82-.315.886-2.425 5.1-9.4 7.36-10.754a1.868 1.868 0 012.883 1.837zm-37.721 41.689a79.347 79.347 0 00.539-9.108 148.926 148.926 0 006.25-18.577 44.753 44.753 0 017.575 3.127c-.019 4.89-1.092 21.943-1.991 23.442-3.042 1.615-10.384 1.304-12.373 1.116zm25.863-33.946c-.062 3.793-2.8 10.521-3.666 12.41-2.507-1.883-10.756-5.945-15.638-7.522a.625.625 0 00-.785.4c-1.3 4.755-2.669 9.509-4.38 14.136-2.966 8.014-7.483 15.338-20.6 12.66-7.39-14.362 18.68-42.067 22.57-42.878 4.846-1.012 19.52 8.307 22.5 10.794zm-82.6 5.843c-.492-1.7-3.781-6.314-4.912-7.525a1.866 1.866 0 00.793-1.6c-.044-.466-.769-.608-.863-.092a1.452 1.452 0 01-2.291 1.071 3.719 3.719 0 01-1.375-4.1 1.173 1.173 0 011.728-.416.469.469 0 00.573-.057 9.517 9.517 0 001.854-7.439 22.937 22.937 0 008.79-2.413c3.292-1.665 5.746-3.526 4.784-8.224-.573-2.807-2.873-5.81-6.514-4.957-4.592 1.076-12.823 8.633-13.212 13.19-1.556.349-2.85 1.1-3.134 2.775-.51 3.012 1.819 6.537 4.06 8.315-.069 2.2 1.389 4.994 4.024 4.371a61.9 61.9 0 014.97 7.54c.255.462.848-.01.725-.438zM51.846 15.54a13.549 13.549 0 015.119-3.707c1.678-.71 4.492-.8 4.709 1.537a.5.5 0 01-.935.247c-.784-1.752-2.75-1.134-4.1-.473a18.145 18.145 0 00-4.212 2.984.412.412 0 01-.577-.589zm30.927-7.451a3.133 3.133 0 014.938-1.437 3.046 3.046 0 01.91 3.617.475.475 0 01-.912-.233 2.219 2.219 0 10-4.128-1.624.435.435 0 11-.808-.323z" fill="#133557"></path>
    </g>
  </symbol>
  <symbol xmlns="http://www.w3.org/2000/svg" viewBox="0 0 42.566 42.566" id="card-icon-success">
    <g fill="none">
      <path d="M0 0h42.566v42.566H0z"></path>
      <path d="M15.962 19.509l5.321 5.321 14.188-14.189" stroke="#40556c" stroke-linecap="round" stroke-linejoin="round" stroke-width="3"></path>
      <path d="M35.471 21.283v10.641a3.547 3.547 0 01-3.547 3.547H10.641a3.547 3.547 0 01-3.547-3.547V10.641a3.547 3.547 0 013.547-3.547h15.962" stroke="#40556c" stroke-linecap="round" stroke-linejoin="round" stroke-width="3"></path>
    </g>
  </symbol>
  <symbol xmlns="http://www.w3.org/2000/svg" viewBox="0 0 45.587 45.587" id="checkbox">
    <g fill="none">
      <path d="M0 0h45.587v45.587H0z"></path>
      <path stroke="#40556c" stroke-linecap="round" stroke-linejoin="round" stroke-width="3" d="M5.642 7.442h34.187m-32.231.156v18.994a3.8 3.8 0 003.8 3.8H34.19a3.8 3.8 0 003.8-3.8V7.598M22.916 30.473v7.557m-5.758 0h11.156"></path>
      <path d="M15.196 22.796l5.7-5.7 3.8 3.8 5.7-5.7" stroke="#40556c" stroke-linecap="round" stroke-linejoin="round" stroke-width="3"></path>
    </g>
  </symbol>
  <symbol xmlns="http://www.w3.org/2000/svg" viewBox="0 0 202.236 178.932" id="presentation">
    <g transform="translate(-5 -21.568)">
      <path d="M104.987 189.153l5.11-8.5a.951.951 0 00-1.642-.96l-5.11 8.5a.951.951 0 001.642.96zm49.362-79.623l-6 14.7c-.462 1.132 1.376 1.625 1.833.506l6-14.7c.462-1.133-1.376-1.626-1.833-.506zm-54.49 70.452q3.909-7.875 8.472-15.384a.951.951 0 00-1.641-.96q-4.567 7.514-8.473 15.384c-.543 1.093 1.1 2.057 1.642.96zm-64.884 5.639l7.914-13.568a.951.951 0 00-1.642-.96l-7.914 13.569a.951.951 0 001.642.96zm13.171-54.74l8.759-17.231c.553-1.088-1.087-2.051-1.642-.959l-8.759 17.23c-.553 1.086 1.087 2.05 1.642.96zm2.621 19.883l8.578-17.553c.535-1.1-1.1-2.06-1.642-.96l-8.578 17.554c-.535 1.095 1.1 2.059 1.642.959zm103.695-25.82l-6 14.7c-.462 1.132 1.376 1.624 1.833.5l6-14.7c.463-1.126-1.376-1.615-1.833-.5zm-54.469 8.376a.81.81 0 00-.814-.311c-4.352.584-6.877 3.047-8.864 6.828a96.472 96.472 0 00-4.523 9.226 50.233 50.233 0 00-2.912 6.462.931.931 0 00-.026.633 1.016 1.016 0 001.007.856c3.864.049 6.546-3.66 8.684-6.456q.807-1.054 1.524-2.156a37.13 37.13 0 003.429-5.306 31.474 31.474 0 003.406-8.484 1.046 1.046 0 00-.911-1.293zm-31.246 38.33a.558.558 0 00-.019.033 1.039 1.039 0 00-.423.259c-7.486 7.364-12.888 17.016-10.5 27.79a1.059 1.059 0 001.545.628c8.559-5.382 9.956-18.869 11.318-27.9a1.057 1.057 0 00-1.921-.81z" fill="#77aca2"></path>
      <path d="M34.348 66.693a6.974 6.974 0 013.047-1.654 6.764 6.764 0 012.248-.16v-.574a7.9 7.9 0 01-3.893-.983 6.383 6.383 0 01-2.441-2.459 8.1 8.1 0 01-1.107-3.2 29.578 29.578 0 01-.178-.96c-.139.01-.279.022-.423.027-.368 4.035-3.61 7.782-7.583 7.4l-.039.008c-.085.018-.172.028-.258.042l.029.471a8.085 8.085 0 015.624 2.852 8.259 8.259 0 011.962 4.912c.113.009.225.01.338.013a8 8 0 01.743-3.133 6.7 6.7 0 011.926-2.6z" fill="#40556c"></path>
      <path d="M200.438 133.591a6.984 6.984 0 013.047-1.651 6.765 6.765 0 012.248-.16v-.573a7.914 7.914 0 01-3.893-.984 6.385 6.385 0 01-2.441-2.458 8.1 8.1 0 01-1.107-3.2 29.084 29.084 0 01-.179-.96 9.548 9.548 0 01-.422.027c-.368 4.035-3.61 7.782-7.584 7.4a.342.342 0 00-.038.007c-.086.018-.173.028-.259.042l.029.471a8.085 8.085 0 015.624 2.853 8.263 8.263 0 011.963 4.912c.112.008.225.01.337.013a8 8 0 01.743-3.133 6.694 6.694 0 011.926-2.6z" fill="#ffdb43"></path>
      <circle cx="3.246" cy="3.246" r="3.246" transform="translate(155.918 152.017)" fill="#40556c"></circle>
      <path d="M33.383 106.623a4.44 4.44 0 011.94-1.053 4.308 4.308 0 011.431-.1v-.365a5.035 5.035 0 01-2.478-.628 4.071 4.071 0 01-1.551-1.561 5.161 5.161 0 01-.7-2.04c-.042-.2-.079-.406-.114-.612a6.022 6.022 0 01-.268.017c-.234 2.568-2.3 4.951-4.828 4.71h-.025c-.054.012-.109.018-.165.026l.019.3a5.147 5.147 0 013.58 1.813 5.266 5.266 0 011.25 3.127c.07.006.139.006.214.008a5.105 5.105 0 01.474-1.994 4.266 4.266 0 011.221-1.648z" fill="#ffdb43"></path>
      <circle cx="1.511" cy="1.511" r="1.511" transform="translate(132.743 157.398)" fill="#40556c"></circle>
      <circle cx="1.511" cy="1.511" r="1.511" transform="translate(149.356 191.359)" fill="#40556c"></circle>
      <circle cx="1.511" cy="1.511" r="1.511" transform="translate(55.729 79.86)" fill="#40556c"></circle>
      <circle cx="2.824" cy="2.824" r="2.824" transform="translate(5 88.574)" fill="#40556c"></circle>
      <circle cx="1.511" cy="1.511" r="1.511" transform="translate(55.723 45.145)" fill="#40556c"></circle>
      <circle cx="1.511" cy="1.511" r="1.511" transform="translate(9.463 158.909)" fill="#40556c"></circle>
      <circle cx="1.511" cy="1.511" r="1.511" transform="translate(31.688 127.019)" fill="#40556c"></circle>
      <circle cx="1.511" cy="1.511" r="1.511" transform="translate(184.123 92.563)" fill="#40556c"></circle>
      <path d="M181.729 57.024a3.051 3.051 0 011.331-.722 2.966 2.966 0 01.982-.07v-.25a3.463 3.463 0 01-1.7-.43 2.8 2.8 0 01-1.066-1.074 3.546 3.546 0 01-.483-1.4 12.263 12.263 0 01-.078-.418c-.061 0-.123.01-.184.012-.161 1.763-1.577 3.4-3.312 3.232h-.017c-.038.008-.075.012-.113.018l.013.209a3.536 3.536 0 012.457 1.246 3.612 3.612 0 01.857 2.146h.147a3.5 3.5 0 01.325-1.368 2.929 2.929 0 01.841-1.131z" fill="#ffdb43"></path>
      <circle cx="1.511" cy="1.511" r="1.511" transform="translate(186.25 177.755)" fill="#40556c"></circle>
      <circle cx="1.511" cy="1.511" r="1.511" transform="translate(172.2 29.903)" fill="#40556c"></circle>
      <circle cx="1.511" cy="1.511" r="1.511" transform="translate(15.184 31.83)" fill="#40556c"></circle>
      <path d="M74.893 29.282a3.047 3.047 0 011.331-.722 2.966 2.966 0 01.982-.07v-.25a3.462 3.462 0 01-1.7-.43 2.8 2.8 0 01-1.066-1.074 3.531 3.531 0 01-.483-1.4q-.043-.209-.078-.418c-.061 0-.123.01-.184.012-.161 1.763-1.577 3.4-3.313 3.232h-.017c-.037.008-.075.012-.113.018 0 .07.009.139.013.206a3.534 3.534 0 012.456 1.246 3.609 3.609 0 01.858 2.146h.147a3.5 3.5 0 01.324-1.368 2.929 2.929 0 01.843-1.135z" fill="#ffdb43"></path>
      <path d="M64.015 35.696a59.54 59.54 0 00-2.767 3.766c-.819 1.2-2.08 2.589-2.343 4.034-.027.148.13.317.279.215 1.109-.762 1.743-2.19 2.441-3.314.933-1.494 1.8-2.98 2.594-4.543.063-.124-.107-.279-.205-.158z" fill="#40556c"></path>
      <path d="M150.58 79.377a31.186 31.186 0 0110.964-7.007 122.11 122.11 0 00-5.858-11.272c-2.67-3.462-5.53-6.93-9.219-9.263-.737-.466-1.421.551-.892 1.156l1.046 1.2a37.034 37.034 0 00-2.24-1.555.778.778 0 00-.354-.119c-.808-.418-1.464.683-.922 1.345l.832 1.012a14.828 14.828 0 00-2.074-1.163.987.987 0 00-1 1.7c.144.091.275.2.414.291a.686.686 0 00.1.162 12.749 12.749 0 013.375 6.544 12.641 12.641 0 00-1.358-2.686.976.976 0 00-1.707.153.635.635 0 00-.232.558c.206 2.453-.006 5.7 1.877 7.493 1.646 1.563 3.226 2.6 4.442 4.633a50.136 50.136 0 012.806 6.818z" fill="#fff" stroke="#40556c"></path>
      <path d="M141.836 28.583a.963.963 0 00-.066-.468.7.7 0 00-.64-.6 1.263 1.263 0 00-.67-.07 1.282 1.282 0 00-.568-1.97c-2-.729-4-1.431-6.02-2.092-1.527-.5-3.4-1.4-5.036-1.306a1.186 1.186 0 00-1.122.854.264.264 0 01-.013.056.8.8 0 00-.3.31c-3.781 6.878-7.774 13.62-11.751 20.386 1.5.368 13.193 5.221 14.071 5.543a55.559 55.559 0 005.439-9.759 21.763 21.763 0 014.96-3.862 1.227 1.227 0 00.394-.332 1.147 1.147 0 00.863-1.186 20.073 20.073 0 01.462-4.945 1.2 1.2 0 000-.556z" fill="none" stroke="#40556c"></path>
      <path d="M130.162 27.128c.31-.69.652-1.364.994-2.038a8.359 8.359 0 00.938-1.915.539.539 0 00-.893-.52 5.719 5.719 0 00-1.213 1.916 18.689 18.689 0 00-.868 2.117c-.214.6.777 1.031 1.046.44zm4.731 1.815c.775-1.314 1.341-2.71 2.195-3.991.39-.585-.566-1.146-.944-.552a15.2 15.2 0 00-2.084 4.191.457.457 0 00.833.349zm1.979 4.584a35.524 35.524 0 004.109-6.857c.339-.837-.966-1.308-1.411-.595a54.361 54.361 0 00-3.333 7.08.369.369 0 00.636.372zm7.741 22.479c.7.665 1.405 1.316 2.08 2a25.517 25.517 0 001.977 2.105.406.406 0 00.634-.488 10.706 10.706 0 00-1.994-2.232 20.4 20.4 0 00-2.273-1.932c-.324-.234-.706.279-.423.548zm2.511-1.179a35.571 35.571 0 011.879 2.225 7.584 7.584 0 001.54 1.9.516.516 0 00.75-.577 6.049 6.049 0 00-1.681-1.96q-1.038-1-2.135-1.937a.25.25 0 00-.353.353z" fill="#133557"></path>
      <path d="M137.68 124.668c-2.249-6.131-8.5-5.834-14-5.725l-15.8.312-4.375-.373c.031-.077-12.15-3.766-17.9-6.456-.849-.3-1.695-.616-2.539-.937-4.02 9.56-7.741 19.24-11.083 29.059q-2.782 8.17-5.239 16.446c-1.375 4.636-3.354 9.589-3.8 14.419-.709 7.663 7.631 8.207 11.431 3.015a19.841 19.841 0 002.5-4.8 59.89 59.89 0 003.138-6.233q7.189-13.17 14.059-26.501c1.916-.333 3.828-.683 5.74-1.031-3.061 3.158-4.852 8.336-.52 10.938a6.307 6.307 0 002.382.814 1.109 1.109 0 00.668.112c.07-.01.139-.022.213-.032l.087.006a.915.915 0 00.558.1l.285-.036a23.242 23.242 0 004.114-.272 62.917 62.917 0 007.821-1.248c1.737-.354 3.5-.714 5.243-1.122 4.776-.707 9.758-1.813 13.386-5.121a14.757 14.757 0 003.631-15.334z" fill="#8b6794"></path>
      <path d="M122.53 132.108a20.585 20.585 0 00-1.472-1.25l.764-.907a3.585 3.585 0 00.928-1.3.457.457 0 00-.663-.51c-.46.23-.748.8-1.046 1.211q-.427.578-.852 1.158a.711.711 0 00-.231.139 176.858 176.858 0 00-17.886 4.393.357.357 0 00.189.688c5.928-1.138 11.794-2.631 17.668-4.015a20.026 20.026 0 011.581 1.417c.47.472.9 1.211 1.558 1.395.353.1.85-.191.8-.607-.106-.773-.796-1.297-1.338-1.812z" fill="#fde74c"></path>
      <path d="M99.379 118.048a529.205 529.205 0 00-2.156 8.182 4.951 4.951 0 01-1.843-.4c-.807-.66-.145-1.947.056-2.774a52.764 52.764 0 011.7-5.589c.272-.746-.875-1.022-1.169-.322a50.145 50.145 0 00-1.765 4.812 13.265 13.265 0 00-.942 3.905c.063 1.649 2.458 1.845 3.929 1.853a.568.568 0 00.868-.158.674.674 0 00.2-.684c.746-2.84 1.452-5.687 2.15-8.539a.536.536 0 00-1.031-.284z" fill="#8b6794"></path>
      <path d="M80.164 121.313c3.915-.936 7.592-2.709 9.781-6.226.349-.558-.538-1.077-.882-.516-2.006 3.273-5.527 4.972-9.108 5.986a.393.393 0 00.209.756z" fill="#fde74c"></path>
      <path d="M171.002 90.382a5.766 5.766 0 00.093-1.267.576.576 0 00-.123-.331c.042-1.269-.837-2.58-1.476-3.64a31.708 31.708 0 00-2.5-4.184c-.628-1.177-1.255-2.351-1.857-3.527-.533-1.036-2.079-.123-1.559.912 1.111 2.213 2.2 4.44 3.336 6.641.637 1.235 1.451 2.434 2.009 3.7a18.311 18.311 0 01-.692 3.449c-3.638 4.656-11.385 7.513-16.171 9.453-5.863 2.375-11.921 4.154-17.938 6.082a.488.488 0 00-.259.737q-2.956 5.132-5.868 10.287a.523.523 0 00.9.527q3.179-5.224 6.287-10.491a.6.6 0 00.083-.349 127.9 127.9 0 0022.268-7.392c3.884-1.792 11.394-4.822 13.174-9.56a2.087 2.087 0 00.292-1.044z" fill="#8b6794"></path>
      <path d="M164.591 77.823l-.034-.166a.2.2 0 00-.39 0l-.034.166a.235.235 0 10.458 0z" fill="#62f6ff"></path>
      <path d="M135.763 56.58a1.045 1.045 0 00-.139-.162c-2.741 1.485-5.6 2.738-8.368 4.184a63.141 63.141 0 00-7.87 4.324c-1.038 1.3-1.733 2.874-.824 4.272a2.812 2.812 0 003.347 1.11c-.237.338-.467.671-.681.981a30.762 30.762 0 00-3.259 6.281c-.147.376.139 1.883.513 1.1a35.476 35.476 0 013.473-5.815c.543-.739 1.149-1.431 1.754-2.123 2.574 4.608 6.654 6.974 12.537 3.645l.307-.179a88.657 88.657 0 00-3.064 5.179c-1.453 2.681-3.32 5.613-3.807 8.647-.052.322.374.707.635.37 1.889-2.441 2.918-5.6 4.35-8.33q2.075-3.952 4.4-7.748a5.629 5.629 0 001.806-4.239c-.1-3.878-3.135-8.369-5.11-11.497z" fill="none" stroke="#40556c"></path>
      <path d="M149.286 81.732a49.85 49.85 0 017.584-5.74c2.462-1.51 5.161-2.546 7.633-4a.275.275 0 00-.209-.5c-5.887 1.181-11.467 5.472-15.729 9.513-.482.458.233 1.169.721.727z" fill="#8b6794"></path>
      <path d="M164.891 73.339c-3.008.25-5.9 2.308-8.418 3.866-2.414 1.494-5.806 3.133-7.3 5.607a.181.181 0 00.2.262 7.182 7.182 0 001.172-.359.708.708 0 00.027.544c.144.317.279.637.393.964a4.91 4.91 0 00.251.656c-6.443.858-12.809 2.65-19.259 3.7a.663.663 0 00-.205-.478 142.949 142.949 0 01-12.16-13.552.7.7 0 00-.247-.2.663.663 0 00-1.059.2q-2.182 4.435-4.145 8.968a.759.759 0 00-.024.545.7.7 0 00.9.823 29.2 29.2 0 017.555-1.471l.566 9.285a.736.736 0 00.043.676.772.772 0 001.358.43c.01-.008.021-.013.031-.022l.455-.386a.683.683 0 00.3-.114 75.019 75.019 0 015.149-3.129c7.082-.6 15.042-1.248 21.65-3.975a.7.7 0 00.209-.139c.628.4 1.259.792 1.91 1.151.621.342 1.425 1 2.151.739a.408.408 0 00.279-.5c-.3-.752-1.17-.9-1.855-1.229-.787-.383-1.554-.8-2.309-1.248a.506.506 0 00.022-.06 4.148 4.148 0 00-.773-2.335.628.628 0 00-.27-.273c2-1.03 3.92-2.72 5.718-3.811 2.564-1.557 5.665-2.537 7.986-4.387a.444.444 0 00-.308-.747zm-35.142-24.266c-2.028-2-5.161-2.962-7.794-3.99a60.887 60.887 0 00-6.148-2.3 23.291 23.291 0 00-3.238-.924l-.474-.227a.618.618 0 00-.853.75.5.5 0 00.409.456c.136.031.279.07.415.1a13.179 13.179 0 002.709 1.009c2.022.874 4.281 1.428 6.252 2.2 2.789 1.1 5.641 2.82 8.638 3.125.106.015.153-.136.084-.199zm-18.487-5.435c-.794-.254-1.11.962-.341 1.237 6.181 2.218 12.1 5.161 18.33 7.235.07.023.1-.07.046-.109-5.296-3.988-11.771-6.366-18.035-8.363z" fill="#8b6794"></path>
      <path d="M111.287 46.098c-10.783 20.914-21.832 42.249-29.918 64.383a.69.69 0 00.722.872 43.647 43.647 0 005.2 2.147c6.555 3.12 14.087 6.062 20.835 5.968a.1.1 0 00.048-.177c-3.6-2.232-7.824-3.264-11.786-4.672-4.393-1.559-8.714-3.315-13.085-4.936 10.241-20.69 19.329-41.916 29.893-62.47.648-1.262-1.256-2.381-1.909-1.115z" fill="#8b6794"></path>
      <path d="M135.952 62.816a27.291 27.291 0 001.255-2.43 6.768 6.768 0 00.847-2.239.558.558 0 00-.937-.388 7.868 7.868 0 00-1.11 2.112c-.367.782-.739 1.554-1.077 2.349-.29.68.621 1.272 1.022.6zm-11.015 3.577c1.5-.012 3.564.028 4.923-.685.467-.244.2-.877-.248-.916a12.35 12.35 0 00-2.326.256c-.782.084-1.564.151-2.349.19a.578.578 0 000 1.155zm12.128-3.371a.826.826 0 00.581.434.553.553 0 00.686-.522.832.832 0 00-.271-.681c-.463-.545-1.4.174-1 .767zm-8.054 4.548a.828.828 0 00.581.434.553.553 0 00.686-.522.83.83 0 00-.271-.681c-.463-.545-1.4.174-1 .767zm.751 2.817a4.651 4.651 0 005.277.693c.567-.3.07-1.088-.492-.841a4.071 4.071 0 01-4.163-.474c-.433-.338-1.054.237-.622.622z" fill="#40556c"></path>
      <path d="M135.892 65.053a14.824 14.824 0 00-1.267-2.224.748.748 0 00-1.008-.218.922.922 0 00-.126.023c-1.169.328-3.164.962-2.756 2.257a5.3 5.3 0 002.528 3.333c1.177.5 2.882.151 3.171-1.059a3.47 3.47 0 00-.541-2.113z" fill="none" stroke="#40556c"></path>
      <path d="M16.172 152.232a30.536 30.536 0 01-2.045 3.147 16.369 16.369 0 00-1.9 2.816.266.266 0 00.388.3c1.943-1.342 2.748-4.152 3.641-6.211.027-.06-.054-.111-.084-.052zm150.601-13.434a55.37 55.37 0 00-6.231 11.173c-.342.921 1.211 1.59 1.6.676 1.674-3.9 3-7.88 4.912-11.683a.164.164 0 10-.283-.166zm25.417 30.794c-1.129 1.965-2.162 4.066-3.454 5.928-.488.7.845 1.384 1.133.478.681-2.141 1.716-4.22 2.58-6.294.063-.151-.182-.247-.261-.11z" fill="#40556c"></path>
      <path d="M37.327 99.031c2.046-3.776 4.705-7.192 6.649-11.009a.589.589 0 00-.922-.711c-3.151 2.986-5.219 7.043-7.175 10.873-.488.958.931 1.801 1.448.847zm165.353 28.5c1.821-4.307 4.143-9.007 4.555-13.718a.338.338 0 00-.572-.237c-3 3.468-4.754 8.3-6.517 12.474-.726 1.714 1.801 3.211 2.534 1.481zm-76.523 62.962a4.473 4.473 0 011.953-1.052 4.34 4.34 0 011.439-.1v-.365a5.083 5.083 0 01-2.492-.628 4.078 4.078 0 01-1.561-1.565 5.132 5.132 0 01-.708-2.04c-.042-.2-.079-.406-.114-.612-.09.007-.18.014-.27.017-.236 2.569-2.312 4.955-4.857 4.711h-.025c-.054.011-.11.017-.165.026l.019.3a5.189 5.189 0 013.6 1.813 5.246 5.246 0 011.255 3.127c.07.006.144.006.215.008a5.069 5.069 0 01.476-1.994 4.264 4.264 0 011.235-1.646zm2.122-6.393c1.592-3.216 4-6.729 4.525-10.3.039-.267-.267-.517-.488-.285-2.5 2.587-3.781 6.608-5.338 9.824-.418.869.871 1.635 1.3.762z" fill="#ffdb43"></path>
      <path d="M135.533 56.017a.654.654 0 00-.349-.464.779.779 0 00-.279-.2c-5.961-2.471-12.371-2.185-18.5-.488a57.412 57.412 0 00-9.747 3.3 19.258 19.258 0 00-2.6 1.3 14.37 14.37 0 00-1.283.832c-.708.484-1.693 1.354-1.54 2.166a.623.623 0 00.308.767 1.225 1.225 0 00.554.262 2.351 2.351 0 001.368-.124 22.515 22.515 0 004.513-1.237l2.552-.8a18.823 18.823 0 00-5.566 3.886.762.762 0 000 1.054c1.238 1.26 3.347.147 4.7-.418a29.1 29.1 0 003.69-1.918c-.255.252-.5.51-.748.787a.756.756 0 00.151 1.17c1.451.87 2.831.245 4.279-.368q3.894-1.651 7.686-3.534c.027-.013.04-.035.064-.05l8.892-3.753a.74.74 0 00.209-.13c.928-.38 1.886-1.01 1.646-2.04z" fill="#40556c"></path>
      <path d="M124.489 79.962a.577.577 0 00-.074-.027c-3.972-.562-8 .824-12.076.5-4.481-.363-8.891-1.369-13.4-1.5a38.907 38.907 0 00-20.921 5.555 26.7 26.7 0 01-4.292 7.328 14.462 14.462 0 018.334.741c.135.054.266.115.395.18 7.435-5.112 16.336-5.221 25.236-3.158 7.072 1.639 16.48-.022 17.694-8.683a.837.837 0 00-.9-.932z" fill="#77aca2"></path>
    </g>
  </symbol>
  <symbol xmlns="http://www.w3.org/2000/svg" viewBox="0 0 10.442 22" id="Group 90">
    <path d="M10.442 7.632H6.615V4.839c0-.856.886-1.055 1.3-1.055h2.472V.015L7.553 0C3.688 0 2.805 2.81 2.805 4.612v3.02h-2.8v3.884h2.8V22h3.81V11.516h3.236z" fill="#fff"></path>
  </symbol>
  <symbol xmlns="http://www.w3.org/2000/svg" viewBox="0 0 22 22" id="f">
    <path d="M4.876 13.295l-.766 2.858-2.8.059A11.019 11.019 0 011.229 5.94l2.492.457 1.093 2.476a6.565 6.565 0 00.062 4.42z" fill="#fbbb00"></path>
    <path d="M21.808 8.945a11 11 0 01-3.921 10.633l-3.139-.16-.444-2.773a6.556 6.556 0 002.821-3.348h-5.882V8.945h10.566z" fill="#518ef8"></path>
    <path d="M17.886 19.578a11 11 0 01-16.575-3.365l3.565-2.918a6.542 6.542 0 009.427 3.35z" fill="#28b446"></path>
    <path d="M18.021 2.532L14.458 5.45a6.541 6.541 0 00-9.644 3.425L1.231 5.941a11 11 0 0116.79-3.409z" fill="#f14336"></path>
  </symbol>
  <symbol xmlns="http://www.w3.org/2000/svg" viewBox="0 0 31.335 42.065" id="facebook">
    <path fill="none" d="M0 0h31.335v36.513H0z"></path>
    <path d="M19.157 42.065V22.902h6.545l.935-7.478h-7.48v-4.673c0-2.1.7-3.739 3.739-3.739h3.973V.236c-.935 0-3.272-.234-5.843-.234-5.608 0-9.581 3.505-9.581 9.815v5.608H4.902v7.477h6.543v19.163z" fill="#77aca2" fill-rule="evenodd"></path>
  </symbol>
  <symbol xmlns="http://www.w3.org/2000/svg" viewBox="0 0 40.411 40.411" id="instagram">
    <path d="M20.205 3.592a61.954 61.954 0 018.082.225 10.413 10.413 0 013.813.673 7.884 7.884 0 013.817 3.817 10.413 10.413 0 01.674 3.817c0 2.021.225 2.694.225 8.082a61.954 61.954 0 01-.225 8.082 10.413 10.413 0 01-.674 3.817 7.884 7.884 0 01-3.817 3.816 10.413 10.413 0 01-3.817.674c-2.021 0-2.694.225-8.082.225a61.954 61.954 0 01-8.082-.225 10.413 10.413 0 01-3.817-.674A7.884 7.884 0 014.49 32.1a10.413 10.413 0 01-.674-3.817c0-2.021-.225-2.694-.225-8.082a61.954 61.954 0 01.225-8.082 10.413 10.413 0 01.674-3.812 8.063 8.063 0 011.572-2.245A3.8 3.8 0 018.307 4.49a10.413 10.413 0 013.817-.674 61.954 61.954 0 018.082-.225m0-3.592A66.335 66.335 0 0011.9.225a13.86 13.86 0 00-4.939.9 8.789 8.789 0 00-3.593 2.243A8.789 8.789 0 001.123 6.96a10.229 10.229 0 00-.9 4.939A66.335 66.335 0 000 20.205a66.335 66.335 0 00.225 8.307 13.86 13.86 0 00.9 4.939 8.789 8.789 0 002.245 3.592 8.789 8.789 0 003.59 2.245 13.86 13.86 0 004.939.9 66.334 66.334 0 008.307.225 66.334 66.334 0 008.307-.225 13.86 13.86 0 004.939-.9 9.419 9.419 0 005.837-5.837 13.86 13.86 0 00.9-4.939c0-2.245.225-2.919.225-8.307a66.334 66.334 0 00-.225-8.307 13.86 13.86 0 00-.9-4.939 8.789 8.789 0 00-2.245-3.592 8.789 8.789 0 00-3.592-2.245 13.86 13.86 0 00-4.939-.9A66.334 66.334 0 0020.205 0m0 9.878A10.161 10.161 0 009.878 20.205 10.327 10.327 0 1020.205 9.878m0 17.062a6.615 6.615 0 01-6.735-6.735 6.615 6.615 0 016.735-6.735 6.615 6.615 0 016.735 6.735 6.615 6.615 0 01-6.735 6.735M30.981 6.96a2.47 2.47 0 102.47 2.47 2.491 2.491 0 00-2.47-2.47" fill="#77aca2" fill-rule="evenodd"></path>
  </symbol>
  <symbol xmlns="http://www.w3.org/2000/svg" version="1.2" viewBox="0 0 750 600" id="evaly-arrow">
    <defs>
      <clipPath id="a">
        <path d="M123.082 41.504H629v519H123.082zm0 0"></path>
      </clipPath>
    </defs>
    <g clip-path="url(#a)">
      <path d="M528.84 41.504c8.847 4.355 17.496 9.367 26.676 12.996 14.922 5.871 22.382 15.637 21.558 32.227-1.883 38.628 2.707 76.527 15.75 113.078 5.051 14.148 11.059 27.968 17.496 41.562 2.875 6.067 7.86 11.113 11.856 16.656 1.812 2.54 3.531 5.145 6.668 9.73-20.438 1.65-35.887-5.245-47.64-16.823-11.427-11.246-19.548-25.793-29.915-40.012-1.582 4.191-3.531 8.312-4.719 12.637-18.918 67.554-37.937 135.074-56.523 202.695-8.32 30.281-15.817 60.828-29.746 89.227-2.84 5.808-5.91 11.48-8.817 17.218-6.472 12.934-17.332 19.133-31.363 18.739-20.305-.563-39.324-4.914-52.957-22.004-22.023-27.575-44.144-55.051-66.23-82.563-2.872-3.562-5.547-7.289-9.41-12.37-6.008 8.25-11.852 14.679-15.848 22.1-12.246 22.696-23.867 45.755-35.59 68.743-4.094 8.05-7.727 16.328-11.688 24.476-3.464 7.157-8.484 11.645-17.265 10.457-8.024-1.09-16.145-1.52-24.235-2.21-11.656-.989-18.355-8.446-23.441-17.977-12.05-22.531-21.36-46.215-26.379-71.152-5.316-26.52-8.816-53.438-13.043-80.188-.46-2.969-.527-6.004-.46-9.004.132-8.808 1.652-10.62 10.796-10.094 6.77.395 13.57 1.747 20.172 3.399 6.008 1.484 6.637 6.86 7.727 12.137 5.613 27.808 10.992 55.648 17.628 83.222 3.797 15.77 9.84 31.008 15.817 49.348 3.398-6.434 5.312-10.125 7.262-13.79 10.27-19.362 20.039-39.054 31.035-57.987 5.578-9.567 12.976-18.207 20.304-26.586 7.825-8.973 18.157-11.844 30.207-11.48 20.801.628 36.88 8.644 49.856 25.167 20.172 25.73 41.433 50.633 62.266 75.867 2.707 3.301 5.68 6.368 9.312 10.426 9.672-16.328 17.234-32.691 21.723-50.039 8.847-34.11 16.277-68.578 24.761-102.816 18.422-74.32 38.133-148.274 62.07-221.04 1.454-4.386 2.575-8.84 2.212-14.285-2.774 2.938-5.711 5.743-8.254 8.875-11.39 14.051-22.649 28.204-34.04 42.254-8.417 10.36-11.952 11.512-24.398 6.102-6.074-2.637-11.39-6.957-17.629-10.852 24.399-48.82 63.223-85.73 89.602-131.117 1.223-1.98 4.062-2.969 6.836-4.95zm0 0" fill="#ebd76f"></path>
    </g>
  </symbol>
</svg>